<svg width="128" height="128" viewBox="0 0 128 128" fill="none" xmlns="http://www.w3.org/2000/svg">
  <defs>
    <linearGradient id="sensitiveLogoA" x1="25" y1="103" x2="101" y2="18" gradientUnits="userSpaceOnUse">
      <stop stop-color="#27C0A8"/>
      <stop offset="0.52" stop-color="#3A8BFF"/>
      <stop offset="1" stop-color="#8ED6FF"/>
    </linearGradient>
    <linearGradient id="sensitiveLogoB" x1="37" y1="93" x2="85" y2="33" gradientUnits="userSpaceOnUse">
      <stop stop-color="#DFFFF8"/>
      <stop offset="1" stop-color="#FFFFFF"/>
    </linearGradient>
    <filter id="sensitiveLogoShadow" x="10" y="12" width="108" height="106" filterUnits="userSpaceOnUse" color-interpolation-filters="sRGB">
      <feFlood flood-opacity="0" result="BackgroundImageFix"/>
      <feColorMatrix in="SourceAlpha" type="matrix" values="0 0 0 0 0 0 0 0 0 0 0 0 0 0 0 0 0 0 127 0" result="hardAlpha"/>
      <feOffset dy="8"/>
      <feGaussianBlur stdDeviation="8"/>
      <feColorMatrix type="matrix" values="0 0 0 0 0.086 0 0 0 0 0.314 0 0 0 0 0.596 0 0 0 0.18 0"/>
      <feBlend mode="normal" in2="BackgroundImageFix" result="effect1_dropShadow"/>
      <feBlend mode="normal" in="SourceGraphic" in2="effect1_dropShadow" result="shape"/>
    </filter>
  </defs>
  <g filter="url(#sensitiveLogoShadow)">
    <path d="M64 19C82.9 30.4 100.5 48.5 105.7 72.4C91.4 92.7 75.5 103.7 64 108C52.5 103.7 36.6 92.7 22.3 72.4C27.5 48.5 45.1 30.4 64 19Z" fill="url(#sensitiveLogoA)"/>
    <path d="M64 27.8C80.2 38.2 92.4 52.3 97.1 70.3C86.1 86.3 73.6 96.2 64 100.1C54.4 96.2 41.9 86.3 30.9 70.3C35.6 52.3 47.8 38.2 64 27.8Z" fill="white" fill-opacity="0.16"/>
    <path d="M64 35.5C73.8 44.6 80.8 56 82.8 69.4C75.7 80.9 69.4 88.2 64 92.1C58.6 88.2 52.3 80.9 45.2 69.4C47.2 56 54.2 44.6 64 35.5Z" fill="url(#sensitiveLogoB)" fill-opacity="0.88"/>
    <path d="M64 35.5V92.1" stroke="#2F7DF6" stroke-opacity="0.28" stroke-width="4" stroke-linecap="round"/>
    <path d="M48 70C53.9 66.6 59.2 61.3 64 54.2C68.8 61.3 74.1 66.6 80 70" stroke="#27C0A8" stroke-width="5.5" stroke-linecap="round" stroke-linejoin="round"/>
    <path d="M36.7 73.6C44.8 77.7 53.7 80.1 64 80.1C74.3 80.1 83.2 77.7 91.3 73.6" stroke="#1D6FE8" stroke-opacity="0.72" stroke-width="5.5" stroke-linecap="round"/>
    <path d="M47.6 53.8C52.8 48.2 58.4 43.6 64 39.9C69.6 43.6 75.2 48.2 80.4 53.8" stroke="white" stroke-opacity="0.62" stroke-width="4" stroke-linecap="round"/>
  </g>
</svg>
